<svg width="12" height="11" viewBox="0 0 12 11" fill="none" xmlns="http://www.w3.org/2000/svg">
<path d="M11.0021 3.5729L7.95835 3.12915L6.59794 0.370822C6.35419 -0.120844 5.64794 -0.127094 5.4021 0.370822L4.04169 3.12915L0.997937 3.5729C0.452103 3.65207 0.233353 4.32498 0.629187 4.7104L2.83127 6.85623L2.31044 9.88747C2.21669 10.4354 2.79377 10.8458 3.2771 10.5896L6.00002 9.15831L8.72294 10.5896C9.20627 10.8437 9.78335 10.4354 9.6896 9.88747L9.16877 6.85623L11.3709 4.7104C11.7667 4.32498 11.5479 3.65207 11.0021 3.5729ZM8.09585 6.50623L8.5896 9.38956L6.00002 8.02914L3.41044 9.38956L3.90419 6.50623L1.80835 4.46457L4.70419 4.04373L6.00002 1.41874L7.29585 4.04373L10.1917 4.46457L8.09585 6.50623Z" fill="white"/>
</svg>
